<svg width="204" height="160" viewBox="0 0 204 160" fill="none" xmlns="http://www.w3.org/2000/svg">
<path d="M29.0019 43H122.211V98.9549H29.0019V43Z" fill="#EFF1F3" stroke="black" stroke-miterlimit="10"/>
<path d="M35.2109 49.1133H128.211V105.113H35.2109V49.1133Z" fill="#EFF1F3" stroke="black" stroke-miterlimit="10"/>
<path d="M41.0019 55H134.211V110.955H41.0019V55Z" fill="#FFB81C" stroke="black" stroke-miterlimit="10"/>
<path d="M14 38C18.4183 38 22 34.4183 22 30C22 25.5817 18.4183 22 14 22C9.58172 22 6 25.5817 6 30C6 34.4183 9.58172 38 14 38Z" fill="#00A6D6" stroke="black" stroke-miterlimit="10"/>
<path d="M14 38V48C14 52.4183 17.5817 56 22 56H28.5" stroke="black"/>
<path d="M193.219 107.429C189.847 107.429 187.114 110.152 187.114 113.51V137.785C187.114 141.144 184.381 143.866 181.01 143.866H180.77C177.399 143.866 174.666 141.144 174.666 137.785V63.0811C174.666 59.7224 171.933 57 168.561 57H168.48C165.108 57 162.376 59.7224 162.376 63.0811V125.481C162.376 128.84 159.643 131.562 156.271 131.562H155.962C152.59 131.562 149.857 128.84 149.857 125.481V96.1684C149.857 92.8098 147.124 90.0873 143.753 90.0873H134.001" stroke="black" stroke-miterlimit="10"/>
<path d="M196.732 111.437C194.671 111.437 192.999 109.772 192.999 107.718C192.999 105.665 194.671 104 196.732 104C198.794 104 200.465 105.665 200.465 107.718C200.465 109.772 198.794 111.437 196.732 111.437Z" fill="#EFF1F3" stroke="black" stroke-miterlimit="10"/>
</svg>
