<svg width="1440" height="320" viewBox="0 0 1440 320" fill="none" xmlns="http://www.w3.org/2000/svg">
<path opacity="0.6" d="M1204.38 265.689C974.14 338.829 734.972 279.959 736.757 -28.6572C736.757 -499.609 1841.57 -893.851 1995.06 -1304.15C2032.54 -1405.83 2036.11 -1491.46 1986.14 -1487.89C1950.44 -1486.11 1979 -1434.38 1900.47 -1357.67C1443.55 -899.204 676.073 -900.986 87.0785 -636.968C-298.445 -463.929 -1430.03 67.6743 -1169.44 1253.97C-1156.95 1311.06 -1123.04 1498.37 -1089.13 1498.37C-1049.86 1498.37 -1049.86 1385.98 -1049.86 1250.41C-1058.78 543.98 -221.698 347.748 51.381 -114.284C83.5079 -169.585 140.623 -246.292 153.116 -210.614C160.256 -192.775 154.902 -167.802 144.193 -117.853C58.5211 262.12 -337.711 504.733 -225.267 775.887C-78.9109 1127.32 340.525 865.082 470.818 638.525C504.729 576.089 524.363 536.843 547.565 543.978C565.414 549.33 563.629 620.685 552.92 684.906C483.311 1093.42 390.499 1321.76 90.6475 1555.45C-5.7334 1630.38 -155.659 1644.65 -136.026 1701.74C-130.671 1716.01 -67.2571 1712.29 -14.6569 1708.87C781.378 1657.14 1447.12 720.586 1623.82 106.922C1636.59 62.578 1647.02 23.0773 1629.17 8.80603C1605.97 -9.03308 1570.27 31.9963 1534.58 64.1067C1443.55 146.167 1318.61 230.011 1204.38 265.689Z" fill="white"/>
</svg>
