<svg width="185" height="72" viewBox="0 0 185 72" fill="none" xmlns="http://www.w3.org/2000/svg">
<path d="M53.6173 64.6872C58.2587 64.6872 60.6722 61.5397 60.6722 57.2812V35.4336H70.512V57.8367C70.3263 67.6496 62.5288 71.5377 53.6173 71.5377C44.7058 71.5377 36.7227 67.6496 36.7227 57.8367V35.4336H46.5624V57.2812C46.3767 61.7248 48.9759 64.6872 53.6173 64.6872Z" fill="black"/>
<path d="M11.1021 70.7971H20.9418V42.2841H31.8955V35.4336H0.148438V42.2841H11.1021V70.7971Z" fill="black"/>
<path d="M34.6804 18.2134C32.2668 18.954 29.8533 18.3986 29.8533 15.251C29.8533 10.4371 41.364 6.36384 43.0349 2.1054C43.4062 0.994504 43.4062 0.253906 43.0349 0.253906C42.6636 0.253906 43.0349 0.809354 42.1066 1.54995C37.2795 6.36384 29.2964 6.36384 23.1697 8.95593C19.0853 10.8074 7.38901 16.3619 10.1738 28.5818C10.3595 29.1372 10.7308 31.1739 11.1021 31.1739C11.4734 31.1739 11.4734 30.063 11.4734 28.5818C11.4734 21.1758 20.0136 19.1392 22.9841 14.3253C23.3554 13.7698 23.9123 13.0292 24.098 13.3995C24.098 13.5847 24.098 13.7698 24.098 14.3253C23.1697 18.2134 19.0853 20.8055 20.1992 23.5827C21.6845 27.2857 26.1402 24.5085 27.4398 22.1015C27.8111 21.5461 27.9968 20.9906 28.1824 21.1758C28.3681 21.1758 28.3681 21.9164 28.1824 22.657C27.4398 26.9154 26.5115 29.3224 23.3554 31.7293C22.4271 32.4699 20.7562 32.6551 20.9419 33.2105C20.9419 33.3957 21.6845 33.3957 22.2414 33.2105C30.5959 32.6551 37.4652 23.0273 39.3218 16.5471C39.5074 16.1768 39.5074 15.6213 39.3218 15.4362C39.1361 15.251 38.7648 15.6213 38.3935 15.9916C37.2795 16.9174 35.98 17.8431 34.6804 18.2134Z" fill="black"/>
<path d="M118.782 56.1707C118.782 52.2826 121.196 48.7647 125.095 48.7647C129.55 48.7647 131.407 51.9123 131.407 56.1707H118.782ZM136.234 59.5034V57.2816C136.234 50.4311 132.335 45.6172 125.28 45.6172C117.483 45.6172 113.77 51.7271 113.77 58.948C113.77 66.1688 116.926 71.7233 124.909 71.7233C130.85 71.7233 135.12 68.946 135.863 63.3915H130.85C130.293 66.9094 128.436 68.3906 124.909 68.3906C120.082 68.3906 118.597 64.1321 118.597 59.6885H136.234V59.5034Z" fill="black"/>
<path d="M146.63 35.4336H141.988V70.7971H146.63V35.4336Z" fill="black"/>
<path d="M161.297 70.7956V49.5034H167.052V46.1707H161.297V42.2825C161.297 39.5053 162.596 38.9498 165.381 38.9498C166.124 38.9498 166.866 39.135 167.794 39.135V35.2469C166.681 35.0617 165.567 34.6914 164.453 34.6914C159.997 34.6914 156.655 36.9132 156.655 41.5419V46.1707H151.828V49.5034H156.655V70.9807H161.297V70.7956Z" fill="black"/>
<path d="M169.652 46.1716V49.5043H173.922V65.242C173.922 68.5747 173.922 71.7223 180.977 71.7223C182.091 71.7223 183.02 71.5371 184.133 71.352V67.8341C183.391 68.0193 182.463 68.2044 181.72 68.2044C180.049 68.2044 178.749 67.2787 178.749 65.6123V49.6895H184.505V46.3568H178.749V39.6914L174.108 41.1726V46.3568L169.652 46.1716Z" fill="black"/>
<path d="M80.3516 70.7967H92.6048C107.829 70.7967 109.314 58.0214 109.314 53.0224C109.314 48.2085 107.643 35.248 92.6048 35.248H80.3516V70.7967ZM85.3643 39.6916H92.6048C100.774 39.6916 104.301 45.8016 104.301 53.2075C104.301 60.6135 100.959 66.7235 92.6048 66.7235H85.3643V39.6916Z" fill="black"/>
</svg>
