<svg width="16" height="16" viewBox="0 0 16 16" fill="none" xmlns="http://www.w3.org/2000/svg">
<path fill-rule="evenodd" clip-rule="evenodd" d="M2.84567 8.1515C3.04093 7.9495 3.35751 7.9495 3.55277 8.1515L7.99922 12.7513L12.4457 8.1515C12.6409 7.9495 12.9575 7.9495 13.1528 8.1515C13.348 8.35349 13.348 8.68099 13.1528 8.88299L8.35277 13.8485C8.259 13.9455 8.13183 14 7.99922 14C7.86661 14 7.73943 13.9455 7.64567 13.8485L2.84567 8.88299C2.6504 8.68099 2.6504 8.35349 2.84567 8.1515Z" fill="black"/>
<path fill-rule="evenodd" clip-rule="evenodd" d="M8.5 2.64706L8.5 13L7.5 13L7.5 2.64706C7.5 2.2897 7.72386 2 8 2C8.27614 2 8.5 2.2897 8.5 2.64706Z" fill="black"/>
</svg>
