<svg width="16" height="24" viewBox="0 0 16 24" fill="none" xmlns="http://www.w3.org/2000/svg">
<path d="M11.326 18.365H4.76925C4.30442 18.365 3.92755 17.9881 3.92755 17.5233V16.2774C3.92755 13.8665 3.2612 13.766 2.00136 11.6676C1.32903 10.5493 0.984323 9.26524 1.00055 7.95331C1.01336 7.00971 1.21289 6.09344 1.59517 5.23011C1.96379 4.39753 2.48412 3.6509 3.14278 3.0096C3.80145 2.36886 4.56145 1.86903 5.40514 1.52261C6.27872 1.16339 7.19983 0.988619 8.14342 1.00057C9.08361 1.01338 9.99561 1.20865 10.8521 1.58153C11.6804 1.94161 12.4236 2.45084 13.0607 3.0967C13.6988 3.74256 14.1987 4.49231 14.5476 5.32575C14.9094 6.18823 15.0919 7.1045 15.0919 8.0481C15.0919 9.30053 14.7591 10.5296 14.1287 11.6047C12.8429 13.7971 12.164 13.9206 12.164 16.2803L12.1677 17.5102C12.1751 17.9802 11.7963 18.365 11.326 18.365Z" stroke="black" stroke-miterlimit="10"/>
<path d="M6.76555 18.3772C6.76555 18.3772 6.76555 13.3789 6.76555 12.3695C6.76555 11.3602 6.95257 10.0645 5.50629 10.0645C4.06001 10.0645 4.10868 12.3695 5.61929 12.3695C6.34542 12.3695 9.56418 12.3695 10.2903 12.3695C11.8009 12.3695 11.8496 10.0645 10.4033 10.0645C8.95703 10.0645 9.14405 11.3602 9.14405 12.3695V18.3772" stroke="black" stroke-miterlimit="10"/>
<path d="M4.55078 18.5V19.9195C4.55078 20.4902 5.01361 20.953 5.58433 20.953H10.4199C10.9906 20.953 11.4534 20.4902 11.4534 19.9195V18.5" stroke="black" stroke-miterlimit="10"/>
<path d="M6.375 20.9531V21.7356C6.375 22.3126 6.84267 22.78 7.41936 22.78H8.58754C9.16452 22.78 9.63191 22.3123 9.63191 21.7356V20.9531" stroke="black" stroke-miterlimit="10"/>
</svg>
